<svg width="24" height="24" viewBox="0 0 24 24" fill="none" xmlns="http://www.w3.org/2000/svg">
<path d="M20.3998 19.567V21.6046C20.3979 22.2392 20.1449 22.8474 19.6962 23.2961C19.2474 23.7449 18.6393 23.9979 18.0046 23.9998H5.99514C5.36048 23.9979 4.75236 23.7449 4.30359 23.2961C3.85482 22.8474 3.60186 22.2392 3.59996 21.6046V17.1634C3.04917 16.9426 2.34478 16.7998 1.19999 16.7998C0.881731 16.7998 0.57651 16.6734 0.351468 16.4484C0.126427 16.2233 0 15.9181 0 15.5998C0 15.2816 0.126427 14.9764 0.351468 14.7513C0.57651 14.5263 0.881731 14.3999 1.19999 14.3999C2.18878 14.3999 2.96397 14.4971 3.59996 14.6495V12.3635C3.04917 12.1427 2.34478 11.9999 1.19999 11.9999C0.881731 11.9999 0.57651 11.8735 0.351468 11.6484C0.126427 11.4234 0 11.1181 0 10.7999C0 10.4816 0.126427 10.1764 0.351468 9.95137C0.57651 9.72633 0.881731 9.5999 1.19999 9.5999C2.18878 9.5999 2.96397 9.6971 3.59996 9.8495V7.56352C3.04917 7.34273 2.34478 7.19993 1.19999 7.19993C0.881731 7.19993 0.57651 7.0735 0.351468 6.84846C0.126427 6.62342 0 6.3182 0 5.99994C0 5.68168 0.126427 5.37646 0.351468 5.15142C0.57651 4.92638 0.881731 4.79995 1.19999 4.79995C2.18878 4.79995 2.96397 4.89715 3.59996 5.04955V2.39518C3.59996 1.07759 4.67755 0 5.99514 0H18.0046C19.3222 0 20.3998 1.07759 20.3998 2.39518V4.99435C22.5358 5.36395 23.4514 6.15474 23.6482 6.35154C23.7597 6.46288 23.8482 6.59512 23.9086 6.7407C23.9689 6.88628 24 7.04233 24 7.19993C24 7.35753 23.9689 7.51358 23.9086 7.65916C23.8482 7.80473 23.7597 7.93698 23.6482 8.04832C23.179 8.51751 22.5562 8.51271 21.9514 8.04832C21.9478 8.04952 20.7046 7.19993 18.001 7.19993C16.4842 7.19993 15.4894 7.69792 14.3375 8.27392C13.0931 8.89551 11.6831 9.5999 9.5999 9.5999C9.16671 9.5999 8.77431 9.5783 8.39992 9.5507V7.13993C8.76231 7.17473 9.15231 7.19993 9.5999 7.19993C11.1167 7.19993 12.1127 6.70193 13.2647 6.12594C14.5091 5.50434 15.9178 4.79995 17.9998 4.79995V2.39998H5.99514L5.99994 21.6046L18.0046 21.5998V19.1998C19.8202 19.1998 20.365 19.5454 20.3998 19.567ZM18.001 9.5999C15.919 9.5999 14.5091 10.3043 13.2647 10.9259C12.1127 11.5019 11.1167 11.9999 9.5999 11.9999C9.15231 11.9999 8.76231 11.9747 8.39992 11.9399V14.3495C8.77431 14.3783 9.16671 14.3999 9.5999 14.3999C11.6831 14.3999 13.0931 13.6955 14.3375 13.0739C15.4894 12.4979 16.4842 11.9999 18.001 11.9999C20.7046 11.9999 21.9478 12.8495 21.9514 12.8495C22.5562 13.3139 23.179 13.3187 23.6482 12.8495C23.7597 12.7381 23.8482 12.6059 23.9086 12.4603C23.9689 12.3147 24 12.1587 24 12.0011C24 11.8435 23.9689 11.6874 23.9086 11.5419C23.8482 11.3963 23.7597 11.264 23.6482 11.1527C23.389 10.8923 21.8998 9.5999 18.001 9.5999ZM18.001 14.3999C15.919 14.3999 14.5091 15.1042 13.2647 15.7258C12.1127 16.3018 11.1167 16.7998 9.5999 16.7998C9.15231 16.7998 8.76231 16.7746 8.39992 16.7398V19.1494C8.77431 19.1782 9.16671 19.1998 9.5999 19.1998C11.6831 19.1998 13.0931 18.4954 14.3375 17.8738C15.4894 17.2978 16.4842 16.7998 18.001 16.7998C20.7046 16.7998 21.9478 17.6494 21.9514 17.6494C22.5562 18.1138 23.179 18.1186 23.6482 17.6494C23.7597 17.5381 23.8482 17.4058 23.9086 17.2603C23.9689 17.1147 24 16.9586 24 16.801C24 16.6434 23.9689 16.4874 23.9086 16.3418C23.8482 16.1962 23.7597 16.064 23.6482 15.9526C23.389 15.6922 21.8998 14.3999 18.001 14.3999Z" fill="#B3DA61"/>
</svg>
