<svg width="32" height="32" viewBox="0 0 32 32" fill="none" xmlns="http://www.w3.org/2000/svg">
<path d="M3 26V19C3.00313 17.9401 3.42557 16.9245 4.17503 16.175C4.9245 15.4256 5.9401 15.0031 7 15H25C26.0599 15.0031 27.0755 15.4256 27.825 16.175C28.5744 16.9245 28.9969 17.9401 29 19V26M24 15H6V8.5C6.00198 7.83757 6.26601 7.20283 6.73442 6.73442C7.20283 6.26601 7.83757 6.00198 8.5 6H23.5C24.1624 6.00198 24.7972 6.26601 25.2656 6.73442C25.734 7.20283 25.998 7.83757 26 8.5V15H24Z" stroke="black" stroke-linecap="round" stroke-linejoin="round"/>
<path d="M16 15V14C16.0015 13.47 16.2127 12.9622 16.5874 12.5874C16.9622 12.2127 17.47 12.0015 18 12H23C23.53 12.0015 24.0378 12.2127 24.4126 12.5874C24.7873 12.9622 24.9985 13.47 25 14V15M3 26V25.5C3.00115 25.1025 3.15956 24.7217 3.44061 24.4406C3.72167 24.1596 4.10253 24.0012 4.5 24H27.5C27.8975 24.0012 28.2783 24.1596 28.5594 24.4406C28.8404 24.7217 28.9988 25.1025 29 25.5V26H3ZM7 15V14C7.00148 13.47 7.21267 12.9622 7.58743 12.5874C7.96218 12.2127 8.47002 12.0015 9 12H14C14.53 12.0015 15.0378 12.2127 15.4126 12.5874C15.7873 12.9622 15.9985 13.47 16 14V15H7Z" stroke="black" stroke-linecap="round" stroke-linejoin="round"/>
</svg>
