<svg width="32" height="23" viewBox="0 0 32 23" fill="none" xmlns="http://www.w3.org/2000/svg">
<mask id="path-1-inside-1" fill="white">
<path d="M31.2 19.2H30.4C29.098 19.2 28.11 18.779 27.5955 18.305C27.1505 17.8945 26.6125 17.6 26.007 17.6H25.192C24.5865 17.6 24.0485 17.8945 23.6035 18.305C23.09 18.779 22.102 19.2 20.8 19.2C19.498 19.2 18.51 18.779 17.9955 18.305C17.5505 17.8945 17.0125 17.6 16.407 17.6H15.592C14.9865 17.6 14.4485 17.8945 14.0035 18.305C13.49 18.779 12.502 19.2 11.2 19.2C9.898 19.2 8.91 18.779 8.3955 18.305C7.9505 17.8945 7.4125 17.6 6.807 17.6H5.992C5.3865 17.6 4.8485 17.8945 4.4035 18.305C3.89 18.779 2.902 19.2 1.6 19.2H0.8C0.358 19.2 0 19.558 0 20V21.6C0 22.042 0.358 22.4 0.8 22.4H1.6C3.531 22.4 5.236 21.7905 6.4 20.808C7.564 21.791 9.269 22.4 11.2 22.4C13.131 22.4 14.836 21.7905 16 20.808C17.164 21.791 18.869 22.4 20.8 22.4C22.731 22.4 24.436 21.7905 25.6 20.808C26.764 21.791 28.469 22.4 30.4 22.4H31.2C31.642 22.4 32 22.042 32 21.6V20C32 19.558 31.642 19.2 31.2 19.2ZM11.2 17.6V12.8H20.8V17.6C21.756 17.6 22.343 17.292 22.5195 17.129C22.978 16.706 23.4795 16.412 24 16.2255V4.8C24 3.918 24.718 3.2 25.6 3.2C26.482 3.2 27.2 3.918 27.2 4.8V5.6C27.2 6.042 27.558 6.4 28 6.4H29.6C30.042 6.4 30.4 6.042 30.4 5.6V4.8C30.4 2.153 28.247 0 25.6 0C22.953 0 20.8 2.153 20.8 4.8V9.6H11.2V4.8C11.2 3.918 11.918 3.2 12.8 3.2C13.682 3.2 14.4 3.918 14.4 4.8V5.6C14.4 6.042 14.758 6.4 15.2 6.4H16.8C17.242 6.4 17.6 6.042 17.6 5.6V4.8C17.6 2.153 15.447 0 12.8 0C10.153 0 8 2.153 8 4.8V16.225C8.5205 16.4115 9.022 16.706 9.4805 17.1285C9.657 17.292 10.244 17.6 11.2 17.6Z"/>
</mask>
<path d="M31.2 19.2H30.4C29.098 19.2 28.11 18.779 27.5955 18.305C27.1505 17.8945 26.6125 17.6 26.007 17.6H25.192C24.5865 17.6 24.0485 17.8945 23.6035 18.305C23.09 18.779 22.102 19.2 20.8 19.2C19.498 19.2 18.51 18.779 17.9955 18.305C17.5505 17.8945 17.0125 17.6 16.407 17.6H15.592C14.9865 17.6 14.4485 17.8945 14.0035 18.305C13.49 18.779 12.502 19.2 11.2 19.2C9.898 19.2 8.91 18.779 8.3955 18.305C7.9505 17.8945 7.4125 17.6 6.807 17.6H5.992C5.3865 17.6 4.8485 17.8945 4.4035 18.305C3.89 18.779 2.902 19.2 1.6 19.2H0.8C0.358 19.2 0 19.558 0 20V21.6C0 22.042 0.358 22.4 0.8 22.4H1.6C3.531 22.4 5.236 21.7905 6.4 20.808C7.564 21.791 9.269 22.4 11.2 22.4C13.131 22.4 14.836 21.7905 16 20.808C17.164 21.791 18.869 22.4 20.8 22.4C22.731 22.4 24.436 21.7905 25.6 20.808C26.764 21.791 28.469 22.4 30.4 22.4H31.2C31.642 22.4 32 22.042 32 21.6V20C32 19.558 31.642 19.2 31.2 19.2ZM11.2 17.6V12.8H20.8V17.6C21.756 17.6 22.343 17.292 22.5195 17.129C22.978 16.706 23.4795 16.412 24 16.2255V4.8C24 3.918 24.718 3.2 25.6 3.2C26.482 3.2 27.2 3.918 27.2 4.8V5.6C27.2 6.042 27.558 6.4 28 6.4H29.6C30.042 6.4 30.4 6.042 30.4 5.6V4.8C30.4 2.153 28.247 0 25.6 0C22.953 0 20.8 2.153 20.8 4.8V9.6H11.2V4.8C11.2 3.918 11.918 3.2 12.8 3.2C13.682 3.2 14.4 3.918 14.4 4.8V5.6C14.4 6.042 14.758 6.4 15.2 6.4H16.8C17.242 6.4 17.6 6.042 17.6 5.6V4.8C17.6 2.153 15.447 0 12.8 0C10.153 0 8 2.153 8 4.8V16.225C8.5205 16.4115 9.022 16.706 9.4805 17.1285C9.657 17.292 10.244 17.6 11.2 17.6Z" fill="#B3DA61"/>
<path d="M27.5955 18.305L20.8151 25.6553L20.8198 25.6596L27.5955 18.305ZM23.6035 18.305L16.8231 10.9547L16.8207 10.957L23.6035 18.305ZM17.9955 18.305L11.2151 25.6553L11.2198 25.6596L17.9955 18.305ZM14.0035 18.305L7.2231 10.9547L7.2207 10.957L14.0035 18.305ZM8.3955 18.305L1.6151 25.6553L1.61983 25.6596L8.3955 18.305ZM4.4035 18.305L-2.3769 10.9547L-2.3793 10.957L4.4035 18.305ZM6.4 20.808L12.8521 13.1679L6.40164 7.72052L-0.0501465 13.1663L6.4 20.808ZM16 20.808L22.4521 13.1679L16.0016 7.72052L9.54985 13.1663L16 20.808ZM25.6 20.808L32.0521 13.1679L25.6016 7.72052L19.1499 13.1663L25.6 20.808ZM11.2 17.6V27.6H21.2V17.6H11.2ZM11.2 12.8V2.8H1.2V12.8H11.2ZM20.8 12.8H30.8V2.8H20.8V12.8ZM20.8 17.6H10.8V27.6H20.8V17.6ZM22.5195 17.129L15.7387 9.77912L15.735 9.78256L22.5195 17.129ZM24 16.2255L27.3731 25.6394L34 23.265V16.2255H24ZM20.8 9.6V19.6H30.8V9.6H20.8ZM11.2 9.6H1.2V19.6H11.2V9.6ZM8 16.225H-2V23.2645L4.6269 25.6389L8 16.225ZM9.4805 17.1285L16.2762 9.79243L16.2666 9.78351L16.257 9.77462L9.4805 17.1285ZM31.2 9.2H30.4V29.2H31.2V9.2ZM30.4 9.2C30.8201 9.2 31.3589 9.26711 31.9807 9.48286C32.546 9.67902 33.4356 10.0885 34.3712 10.9504L20.8198 25.6596C23.5633 28.1872 27.1612 29.2 30.4 29.2V9.2ZM34.3759 10.9547C32.8468 9.54416 29.9995 7.6 26.007 7.6V27.6C23.2255 27.6 21.4542 26.2448 20.8151 25.6552L34.3759 10.9547ZM26.007 7.6H25.192V27.6H26.007V7.6ZM25.192 7.6C21.1995 7.6 18.3523 9.54415 16.8231 10.9547L30.3839 25.6552C29.7448 26.2448 27.9735 27.6 25.192 27.6V7.6ZM16.8207 10.957C17.7597 10.0902 18.653 9.67939 19.2184 9.48313C19.8409 9.26706 20.3801 9.2 20.8 9.2V29.2C24.0357 29.2 27.6394 28.1886 30.3863 25.653L16.8207 10.957ZM20.8 9.2C21.2201 9.2 21.7589 9.26711 22.3807 9.48286C22.946 9.67902 23.8356 10.0885 24.7712 10.9504L11.2198 25.6596C13.9633 28.1872 17.5612 29.2 20.8 29.2V9.2ZM24.7759 10.9547C23.2467 9.54415 20.3995 7.6 16.407 7.6V27.6C13.6255 27.6 11.8542 26.2448 11.2151 25.6552L24.7759 10.9547ZM16.407 7.6H15.592V27.6H16.407V7.6ZM15.592 7.6C11.5995 7.6 8.75225 9.54415 7.2231 10.9547L20.7839 25.6552C20.1448 26.2448 18.3735 27.6 15.592 27.6V7.6ZM7.2207 10.957C8.15971 10.0902 9.05299 9.67939 9.61842 9.48313C10.2409 9.26706 10.7801 9.2 11.2 9.2V29.2C14.4357 29.2 18.0394 28.1886 20.7863 25.653L7.2207 10.957ZM11.2 9.2C11.6201 9.2 12.1589 9.26711 12.7807 9.48286C13.346 9.67902 14.2356 10.0885 15.1712 10.9504L1.61983 25.6596C4.36334 28.1872 7.96122 29.2 11.2 29.2V9.2ZM15.1759 10.9547C13.6467 9.54415 10.7995 7.6 6.807 7.6V27.6C4.0255 27.6 2.25425 26.2448 1.6151 25.6552L15.1759 10.9547ZM6.807 7.6H5.992V27.6H6.807V7.6ZM5.992 7.6C1.99949 7.6 -0.847749 9.54415 -2.3769 10.9547L11.1839 25.6552C10.5447 26.2448 8.77351 27.6 5.992 27.6V7.6ZM-2.3793 10.957C-1.44029 10.0902 -0.547011 9.67939 0.0184187 9.48313C0.640925 9.26706 1.18009 9.2 1.6 9.2V29.2C4.83572 29.2 8.4394 28.1886 11.1863 25.653L-2.3793 10.957ZM1.6 9.2H0.8V29.2H1.6V9.2ZM0.8 9.2C-5.16485 9.2 -10 14.0351 -10 20H10C10 25.0808 5.88085 29.2 0.8 29.2V9.2ZM-10 20V21.6H10V20H-10ZM-10 21.6C-10 27.5648 -5.16485 32.4 0.8 32.4V12.4C5.88085 12.4 10 16.5191 10 21.6H-10ZM0.8 32.4H1.6V12.4H0.8V32.4ZM1.6 32.4C5.5373 32.4 9.62821 31.1693 12.8501 28.4497L-0.0501465 13.1663C0.418012 12.7711 0.829296 12.5857 1.08192 12.5002C1.34323 12.4118 1.52031 12.4 1.6 12.4V32.4ZM-0.0520628 28.4481C3.17208 31.1709 7.26479 32.4 11.2 32.4V12.4C11.2788 12.4 11.4557 12.4116 11.7174 12.5002C11.9706 12.5858 12.3829 12.7717 12.8521 13.1679L-0.0520628 28.4481ZM11.2 32.4C15.1373 32.4 19.2282 31.1693 22.4501 28.4497L9.54985 13.1663C10.018 12.7711 10.4293 12.5857 10.6819 12.5002C10.9432 12.4118 11.1203 12.4 11.2 12.4V32.4ZM9.54794 28.4481C12.7721 31.1709 16.8648 32.4 20.8 32.4V12.4C20.8788 12.4 21.0557 12.4116 21.3174 12.5002C21.5706 12.5858 21.9829 12.7717 22.4521 13.1679L9.54794 28.4481ZM20.8 32.4C24.7373 32.4 28.8282 31.1693 32.0501 28.4497L19.1499 13.1663C19.618 12.7711 20.0293 12.5857 20.2819 12.5002C20.5432 12.4118 20.7203 12.4 20.8 12.4V32.4ZM19.1479 28.4481C22.3721 31.1709 26.4648 32.4 30.4 32.4V12.4C30.4788 12.4 30.6557 12.4116 30.9174 12.5002C31.1706 12.5858 31.5829 12.7717 32.0521 13.1679L19.1479 28.4481ZM30.4 32.4H31.2V12.4H30.4V32.4ZM31.2 32.4C37.1648 32.4 42 27.5648 42 21.6H22C22 16.5191 26.1192 12.4 31.2 12.4V32.4ZM42 21.6V20H22V21.6H42ZM42 20C42 14.0351 37.1648 9.2 31.2 9.2V29.2C26.1192 29.2 22 25.0808 22 20H42ZM21.2 17.6V12.8H1.2V17.6H21.2ZM11.2 22.8H20.8V2.8H11.2V22.8ZM10.8 12.8V17.6H30.8V12.8H10.8ZM20.8 27.6C23.5558 27.6 26.8146 26.7745 29.304 24.4754L15.735 9.78256C16.4647 9.10868 17.1303 8.70658 17.5156 8.49605C17.9637 8.25119 18.3814 8.07662 18.7522 7.95139C19.5054 7.69702 20.2011 7.6 20.8 7.6V27.6ZM29.3003 24.4789C28.7618 24.9757 28.1012 25.3786 27.3731 25.6394L20.6269 6.81156C18.8578 7.44544 17.1942 8.43628 15.7387 9.77912L29.3003 24.4789ZM34 16.2255V4.8H14V16.2255H34ZM34 4.8C34 9.44085 30.2408 13.2 25.6 13.2V-6.8C19.1952 -6.8 14 -1.60485 14 4.8H34ZM25.6 13.2C20.9592 13.2 17.2 9.44085 17.2 4.8H37.2C37.2 -1.60485 32.0048 -6.8 25.6 -6.8V13.2ZM17.2 4.8V5.6H37.2V4.8H17.2ZM17.2 5.6C17.2 11.5648 22.0352 16.4 28 16.4V-3.6C33.0808 -3.6 37.2 0.51915 37.2 5.6H17.2ZM28 16.4H29.6V-3.6H28V16.4ZM29.6 16.4C35.5648 16.4 40.4 11.5648 40.4 5.6H20.4C20.4 0.51915 24.5192 -3.6 29.6 -3.6V16.4ZM40.4 5.6V4.8H20.4V5.6H40.4ZM40.4 4.8C40.4 -3.36985 33.7698 -10 25.6 -10V10C22.7242 10 20.4 7.67585 20.4 4.8H40.4ZM25.6 -10C17.4302 -10 10.8 -3.36985 10.8 4.8H30.8C30.8 7.67585 28.4758 10 25.6 10V-10ZM10.8 4.8V9.6H30.8V4.8H10.8ZM20.8 -0.400001H11.2V19.6H20.8V-0.400001ZM21.2 9.6V4.8H1.2V9.6H21.2ZM21.2 4.8C21.2 9.44085 17.4408 13.2 12.8 13.2V-6.8C6.39515 -6.8 1.2 -1.60485 1.2 4.8H21.2ZM12.8 13.2C8.15915 13.2 4.4 9.44085 4.4 4.8H24.4C24.4 -1.60485 19.2048 -6.8 12.8 -6.8V13.2ZM4.4 4.8V5.6H24.4V4.8H4.4ZM4.4 5.6C4.4 11.5648 9.23515 16.4 15.2 16.4V-3.6C20.2808 -3.6 24.4 0.51915 24.4 5.6H4.4ZM15.2 16.4H16.8V-3.6H15.2V16.4ZM16.8 16.4C22.7648 16.4 27.6 11.5648 27.6 5.6H7.6C7.6 0.51915 11.7192 -3.6 16.8 -3.6V16.4ZM27.6 5.6V4.8H7.6V5.6H27.6ZM27.6 4.8C27.6 -3.36985 20.9698 -10 12.8 -10V10C9.92415 10 7.6 7.67585 7.6 4.8H27.6ZM12.8 -10C4.63015 -10 -2 -3.36985 -2 4.8H18C18 7.67585 15.6758 10 12.8 10V-10ZM-2 4.8V16.225H18V4.8H-2ZM4.6269 25.6389C3.89451 25.3765 3.23686 24.9734 2.70403 24.4824L16.257 9.77462C14.8071 8.43863 13.1465 7.44649 11.3731 6.81106L4.6269 25.6389ZM2.68476 24.4646C5.18026 26.7763 8.44818 27.6 11.2 27.6V7.6C11.7988 7.6 12.4952 7.69699 13.2496 7.95195C13.621 8.07748 14.0399 8.25263 14.4894 8.49858C14.8758 8.71 15.5442 9.11435 16.2762 9.79243L2.68476 24.4646Z" fill="#B3DA61" mask="url(#path-1-inside-1)"/>
</svg>
