<svg width="32" height="24" viewBox="0 0 32 24" fill="none" xmlns="http://www.w3.org/2000/svg">
<path d="M23.5305 15.6646C21.5228 13.9178 18.9008 12.8603 16.0286 12.8603C13.1565 12.8603 10.5344 13.9178 8.52317 15.6682C8.46763 15.7183 8.43364 15.7879 8.42831 15.8625C8.42298 15.9371 8.44674 16.0108 8.4946 16.0683L9.78063 17.6008C9.88423 17.7223 10.0664 17.7366 10.1879 17.633C11.7454 16.2612 13.7888 15.4324 16.0286 15.4324C18.2685 15.4324 20.3118 16.2612 21.8694 17.6294C21.9908 17.733 22.173 17.7187 22.2766 17.5972L23.5626 16.0647C23.6627 15.9468 23.6484 15.7682 23.5305 15.6646ZM27.7244 10.6598C24.5557 8.01985 20.4797 6.43017 16.0286 6.43017C11.5775 6.43017 7.50149 8.01985 4.32927 10.6598C4.27124 10.7087 4.23492 10.7787 4.22823 10.8543C4.22153 10.9299 4.24502 11.0051 4.29355 11.0635L5.57958 12.596C5.67961 12.7175 5.8618 12.7317 5.97968 12.6317C8.70536 10.3669 12.2098 9.00224 16.0286 9.00224C19.8474 9.00224 23.3519 10.3669 26.074 12.6317C26.1954 12.7317 26.3741 12.7175 26.4741 12.596L27.7601 11.0635C27.8601 10.942 27.8458 10.7598 27.7244 10.6598ZM31.8933 5.69428C27.5565 2.13625 22.0051 0 15.9572 0C9.94853 0 4.43287 2.10767 0.106793 5.62283C0.0770716 5.64671 0.0524283 5.67629 0.0343146 5.70984C0.0162009 5.74339 0.00498299 5.78022 0.00132122 5.81817C-0.00234056 5.85612 0.00162792 5.89442 0.012993 5.93081C0.0243581 5.9672 0.0428899 6.00095 0.0674974 6.03007L1.35353 7.5626C1.45356 7.68048 1.63217 7.69835 1.75006 7.60189C5.63317 4.45468 10.5737 2.57207 15.9572 2.57207C21.3799 2.57207 26.3526 4.48326 30.2464 7.66977C30.3679 7.76979 30.5465 7.75193 30.6465 7.63047L31.9326 6.09795C32.0362 5.97649 32.0183 5.7943 31.8933 5.69428ZM13.7066 21.291C13.7066 21.8974 13.9475 22.4789 14.3762 22.9077C14.805 23.3364 15.3865 23.5773 15.9929 23.5773C16.5993 23.5773 17.1808 23.3364 17.6095 22.9077C18.0383 22.4789 18.2792 21.8974 18.2792 21.291C18.2792 20.6847 18.0383 20.1031 17.6095 19.6744C17.1808 19.2456 16.5993 19.0047 15.9929 19.0047C15.3865 19.0047 14.805 19.2456 14.3762 19.6744C13.9475 20.1031 13.7066 20.6847 13.7066 21.291Z" fill="#B3DA61"/>
</svg>
