<svg width="24" height="24" viewBox="0 0 24 24" fill="none" xmlns="http://www.w3.org/2000/svg">
<path d="M0.445312 2.57813L7.66406 9.79688C7.36719 10.5938 7.4375 11.2109 7.875 11.6484C8.3125 12.0859 8.92969 12.1563 9.72656 11.8594L9.75 11.8828C9.29688 12.6172 9.05859 13.3594 9.03516 14.1094C9.01172 14.8594 9.14844 15.5391 9.44531 16.1484C9.74219 16.7578 10.1641 17.3281 10.7109 17.8594C12.1016 19.25 13.1016 21.2969 13.7109 24C14.4297 23.6406 15.2188 23.1719 16.0781 22.5938C16.25 21.8125 16.2188 21.0391 15.9844 20.2734C15.75 19.5078 15.3438 18.8594 14.7656 18.3281C15.4844 18.5625 16.1016 18.9531 16.6172 19.5C17.1328 20.0469 17.4844 20.6797 17.6719 21.3984C18.4375 20.7891 19.1016 20.2109 19.6641 19.6641C19.6953 19.6328 19.7383 19.5859 19.793 19.5234C19.8477 19.4609 19.8828 19.4141 19.8984 19.3828C19.3672 18.8516 18.9922 18.25 18.7734 17.5781C19.3203 18.0625 19.9297 18.4141 20.6016 18.6328C21.0859 18.0859 21.5156 17.5625 21.8906 17.0625C21.2031 16.8438 20.5938 16.4805 20.0625 15.9727C19.5312 15.4648 19.1562 14.8594 18.9375 14.1562C19.4375 14.7188 20.0469 15.1211 20.7656 15.3633C21.4844 15.6055 22.2188 15.6641 22.9688 15.5391C23.3906 14.8672 23.7344 14.2578 24 13.7109C21.2969 13.0859 19.25 12.0859 17.8594 10.7109C17.3281 10.1641 16.7578 9.74219 16.1484 9.44531C15.5391 9.14844 14.8594 9.01172 14.1094 9.03516C13.3594 9.05859 12.6172 9.29688 11.8828 9.75L11.8594 9.72656C12.1563 8.92969 12.0859 8.3125 11.6484 7.875C11.2109 7.4375 10.5938 7.36719 9.79688 7.66406L2.57812 0.445313C2.28125 0.148438 1.92578 0 1.51172 0C1.09766 0 0.742188 0.148438 0.445312 0.445313C0.148438 0.742188 0 1.09766 0 1.51172C0 1.92578 0.148438 2.28125 0.445312 2.57813Z" fill="black"/>
</svg>
