<svg width="21" height="30" viewBox="0 0 21 30" fill="none" xmlns="http://www.w3.org/2000/svg">
<path d="M9.08203 23.25C9.27539 23.5488 9.61524 23.748 10.002 23.748C10.3887 23.748 10.7285 23.5488 10.9277 23.25L17.3848 13.2773C18.252 11.9355 18.7559 10.459 18.7559 8.74805C18.75 3.80273 14.8652 0 10.002 0C5.13867 0 1.25391 3.80273 1.25391 8.74805C1.25391 10.459 1.75781 11.9355 2.625 13.2773L9.08203 23.25ZM10.002 3.75C12.7617 3.75 15 5.98828 15 8.74805C15 11.5078 12.7617 13.7461 10.002 13.7461C7.24219 13.7461 5.00391 11.5078 5.00391 8.74805C5.00391 5.98828 7.24219 3.75 10.002 3.75ZM16.4121 18.9551L10.002 27.498L3.5918 18.9551C1.40039 20.1035 0 21.8203 0 23.748C0 27.1992 4.47656 30 10.002 30C15.5273 30 20.0039 27.1992 20.0039 23.748C20.0039 21.8203 18.6035 20.1035 16.4121 18.9551Z" fill="#FE9B3F"/>
</svg>
