<svg width="24" height="24" viewBox="0 0 24 24" fill="none" xmlns="http://www.w3.org/2000/svg">
<circle cx="12" cy="12" r="12" fill="#BFE241"/>
<path d="M3 11.3V18.95C3 19.1986 3.20137 19.4 3.45 19.4H5.7V10.4H3.9C3.40303 10.4 3 10.803 3 11.3ZM13.125 9.95H12.45V8.825C12.45 8.70069 12.3493 8.6 12.225 8.6H11.775C11.6507 8.6 11.55 8.70069 11.55 8.825V10.625C11.55 10.7493 11.6507 10.85 11.775 10.85H13.125C13.2493 10.85 13.35 10.7493 13.35 10.625V10.175C13.35 10.0507 13.2493 9.95 13.125 9.95ZM16.9992 8.15113L12.4992 5.15103C12.3514 5.05255 12.1777 5 12 5C11.8223 5 11.6486 5.05255 11.5008 5.15103L7.00078 8.15113C6.87752 8.2333 6.77645 8.34463 6.70654 8.47523C6.63663 8.60584 6.60003 8.75168 6.6 8.89982V19.4H10.2V15.35C10.2 15.1014 10.4014 14.9 10.65 14.9H13.35C13.5986 14.9 13.8 15.1014 13.8 15.35V19.4H17.4V8.9001C17.4 8.59916 17.2495 8.31791 16.9992 8.15113ZM12 12.2C10.7574 12.2 9.75 11.1926 9.75 9.95C9.75 8.70744 10.7574 7.7 12 7.7C13.2426 7.7 14.25 8.70744 14.25 9.95C14.25 11.1926 13.2426 12.2 12 12.2ZM20.1 10.4H18.3V19.4H20.55C20.7986 19.4 21 19.1986 21 18.95V11.3C21 10.803 20.597 10.4 20.1 10.4Z" fill="white"/>
</svg>
