<?xml version="1.0" encoding="UTF-8"?>
<!DOCTYPE svg PUBLIC "-//W3C//DTD SVG 1.1//EN" "http://www.w3.org/Graphics/SVG/1.1/DTD/svg11.dtd">
<!-- Creator: CorelDRAW 2018 (64-Bit) -->
<svg xmlns="http://www.w3.org/2000/svg" xml:space="preserve" width="3508px" height="2480px" version="1.1" style="shape-rendering:geometricPrecision; text-rendering:geometricPrecision; image-rendering:optimizeQuality; fill-rule:evenodd; clip-rule:evenodd"
viewBox="0 0 3508 2480.4"
 xmlns:xlink="http://www.w3.org/1999/xlink"
 enable-background="new 0 0 129 129">
 <defs>
  <style type="text/css">
   <![CDATA[
    .str0 {stroke:black;stroke-width:2.36;stroke-miterlimit:22.9256}
    .str1 {stroke:black;stroke-width:0.9;stroke-miterlimit:22.9256}
    .fil1 {fill:none}
    .fil0 {fill:black}
    .fil2 {fill:black}
   ]]>
  </style>
 </defs>
 <g id="Layer_x0020_1">
  <metadata id="CorelCorpID_0Corel-Layer"/>
  <path class="fil0 str0" d="M1754 2357.35c615.29,0 1117.14,-499.93 1117.14,-1117.15 0,-617.21 -501.85,-1117.14 -1117.14,-1117.14 -615.29,0 -1117.14,501.85 -1117.14,1117.14 0,615.3 501.85,1117.15 1117.14,1117.15zm0 -2076.62c528.77,0 959.47,430.7 959.47,959.47 0,528.77 -430.7,959.48 -959.47,959.48 -528.77,0 -959.47,-430.71 -959.47,-959.48 0,-528.77 430.7,-959.47 959.47,-959.47z"/>
  <path class="fil1" d="M1496.35 1797.81c15.38,15.38 34.6,23.08 55.76,23.08 19.22,0 40.37,-7.7 55.76,-23.08l507.61 -507.61c15.39,-15.39 23.08,-34.61 23.08,-55.77 0,-21.15 -7.69,-40.37 -23.08,-55.76l-507.61 -507.61c-30.77,-30.77 -80.76,-30.77 -111.53,0 -30.76,30.76 -30.76,80.75 0,111.52l451.86 451.86 -451.86 451.85c-30.76,30.77 -30.76,80.76 0,111.52l0.01 0z"/>
  <path class="fil2 str1" d="M1496.34 1797.81c-30.76,-30.76 -30.76,-80.75 0,-111.52l451.86 -451.85 -451.86 -451.86c-30.76,-30.77 -30.76,-80.76 0,-111.52 30.77,-30.77 80.76,-30.77 111.53,0l507.61 507.61c15.39,15.39 23.08,34.61 23.08,55.76 0,21.16 -7.69,40.38 -23.08,55.77l-507.61 507.61c-15.39,15.38 -36.54,23.08 -55.76,23.08 -21.16,0 -40.38,-7.7 -55.77,-23.08zm257.66 401.87c528.77,0 959.47,-430.71 959.47,-959.48 0,-528.77 -430.7,-959.47 -959.47,-959.47 -528.77,0 -959.47,430.7 -959.47,959.47 0,528.77 430.7,959.48 959.47,959.48z"/>
 </g>
</svg>
