<svg width="20" height="20" viewBox="0 0 20 20" fill="none" xmlns="http://www.w3.org/2000/svg">
<path d="M5.83609 11.7766C6.44547 11.7766 7.03609 11.7766 7.58922 11.5844C9.96109 13.6047 16.2283 18.9391 16.7064 19.4359C16.795 19.5347 16.9034 19.6137 17.0245 19.6678C17.1457 19.7219 17.2769 19.7499 17.4095 19.75C17.808 19.75 18.1923 19.5063 18.408 19.3C18.7314 18.9906 19.9548 17.6688 19.7205 17.425C19.0173 16.7031 18.8298 16.5578 18.5392 16.2625C18.1033 15.8172 17.2127 16.3094 16.8517 16.1547C16.4908 16 16.4205 15.8359 16.3642 15.5688C16.308 15.3016 16.5002 14.8281 16.5048 14.4578C16.5095 14.0688 16.3455 13.8578 16.0736 13.5672C15.858 13.3328 15.6564 13.1641 15.3423 13.1594C14.9205 13.15 14.3627 13.7594 13.9173 13.3047C13.472 12.85 14.208 12.1937 14.1517 11.7109C14.0955 11.2281 13.4252 10.6422 13.1392 10.5812C12.8533 10.5203 12.1173 11.1297 11.7002 11.0359C11.5595 11.0031 11.2314 10.7172 11.1845 10.5016C11.1377 10.2859 11.508 9.32969 11.4611 9.11406C11.4048 8.85156 11.1283 8.54688 10.9736 8.29844C11.2877 7.57188 11.4142 6.91094 11.4142 6.0625C11.4142 2.85156 8.91109 0.25 5.82672 0.25C2.74234 0.25 0.25 2.85156 0.25 6.0625C0.25 9.27344 2.75172 11.7766 5.83609 11.7766ZM4.75 3.25C5.04667 3.25 5.33668 3.33797 5.58335 3.5028C5.83003 3.66762 6.02229 3.90189 6.13582 4.17597C6.24935 4.45006 6.27906 4.75166 6.22118 5.04263C6.1633 5.33361 6.02044 5.60088 5.81066 5.81066C5.60088 6.02044 5.33361 6.1633 5.04264 6.22118C4.75166 6.27906 4.45006 6.24935 4.17598 6.13582C3.90189 6.02229 3.66762 5.83003 3.5028 5.58336C3.33797 5.33668 3.25 5.04667 3.25 4.75C3.25 4.35218 3.40804 3.97064 3.68934 3.68934C3.97064 3.40804 4.35218 3.25 4.75 3.25Z" fill="black"/>
</svg>
