<svg width="60" height="60" viewBox="0 0 60 60" fill="none" xmlns="http://www.w3.org/2000/svg">
<g filter="url(#filter0_d)">
<circle cx="30" cy="24" r="24" fill="white"/>
</g>
<path d="M30 14C26.13 14 23 17.13 23 21C23 26.25 30 34 30 34C30 34 37 26.25 37 21C37 17.13 33.87 14 30 14ZM30 23.5C28.62 23.5 27.5 22.38 27.5 21C27.5 19.62 28.62 18.5 30 18.5C31.38 18.5 32.5 19.62 32.5 21C32.5 22.38 31.38 23.5 30 23.5Z" fill="#B3DA61"/>
<defs>
<filter id="filter0_d" x="0" y="0" width="60" height="60" filterUnits="userSpaceOnUse" color-interpolation-filters="sRGB">
<feFlood flood-opacity="0" result="BackgroundImageFix"/>
<feColorMatrix in="SourceAlpha" type="matrix" values="0 0 0 0 0 0 0 0 0 0 0 0 0 0 0 0 0 0 127 0"/>
<feOffset dy="6"/>
<feGaussianBlur stdDeviation="3"/>
<feColorMatrix type="matrix" values="0 0 0 0 0 0 0 0 0 0 0 0 0 0 0 0 0 0 0.32 0"/>
<feBlend mode="normal" in2="BackgroundImageFix" result="effect1_dropShadow"/>
<feBlend mode="normal" in="SourceGraphic" in2="effect1_dropShadow" result="shape"/>
</filter>
</defs>
</svg>
