<svg width="24" height="24" viewBox="0 0 24 24" fill="none" xmlns="http://www.w3.org/2000/svg">
<path d="M12 4.8H8.4C8.08174 4.8 7.77652 4.92643 7.55147 5.15147C7.32643 5.37652 7.2 5.68174 7.2 6V18C7.2 18.3183 7.32643 18.6235 7.55147 18.8485C7.77652 19.0736 8.08174 19.2 8.4 19.2C8.71826 19.2 9.02348 19.0736 9.24853 18.8485C9.47357 18.6235 9.6 18.3183 9.6 18V14.4H12C13.273 14.4 14.4939 13.8943 15.3941 12.9941C16.2943 12.0939 16.8 10.873 16.8 9.6C16.8 8.32696 16.2943 7.10606 15.3941 6.20589C14.4939 5.30571 13.273 4.8 12 4.8ZM12 12H9.6V7.2H12C12.6365 7.2 13.247 7.45286 13.6971 7.90294C14.1471 8.35303 14.4 8.96348 14.4 9.6C14.4 10.2365 14.1471 10.847 13.6971 11.2971C13.247 11.7471 12.6365 12 12 12ZM20.4 0H3.6C2.64522 0 1.72955 0.379285 1.05442 1.05442C0.379285 1.72955 0 2.64522 0 3.6V20.4C0 21.3548 0.379285 22.2705 1.05442 22.9456C1.72955 23.6207 2.64522 24 3.6 24H20.4C21.3548 24 22.2705 23.6207 22.9456 22.9456C23.6207 22.2705 24 21.3548 24 20.4V3.6C24 2.64522 23.6207 1.72955 22.9456 1.05442C22.2705 0.379285 21.3548 0 20.4 0ZM21.6 20.4C21.6 20.7183 21.4736 21.0235 21.2485 21.2485C21.0235 21.4736 20.7183 21.6 20.4 21.6H3.6C3.28174 21.6 2.97652 21.4736 2.75147 21.2485C2.52643 21.0235 2.4 20.7183 2.4 20.4V3.6C2.4 3.28174 2.52643 2.97652 2.75147 2.75147C2.97652 2.52643 3.28174 2.4 3.6 2.4H20.4C20.7183 2.4 21.0235 2.52643 21.2485 2.75147C21.4736 2.97652 21.6 3.28174 21.6 3.6V20.4Z" fill="#B3DA61"/>
</svg>
