<svg width="11" height="30" viewBox="0 0 11 30" fill="none" xmlns="http://www.w3.org/2000/svg">
<path d="M5.25 0C6.04565 0 6.80871 0.31607 7.37132 0.87868C7.93393 1.44129 8.25 2.20435 8.25 3C8.25 3.79565 7.93393 4.55871 7.37132 5.12132C6.80871 5.68393 6.04565 6 5.25 6C4.45435 6 3.69129 5.68393 3.12868 5.12132C2.56607 4.55871 2.25 3.79565 2.25 3C2.25 2.20435 2.56607 1.44129 3.12868 0.87868C3.69129 0.31607 4.45435 0 5.25 0ZM3 7.5H7.5C8.29565 7.5 9.05871 7.81607 9.62132 8.37868C10.1839 8.94129 10.5 9.70435 10.5 10.5V18.75H8.25V30H2.25V18.75H0V10.5C0 9.70435 0.316071 8.94129 0.87868 8.37868C1.44129 7.81607 2.20435 7.5 3 7.5Z" fill="#B3DA61"/>
</svg>
