<svg width="22" height="26" viewBox="0 0 22 26" fill="none" xmlns="http://www.w3.org/2000/svg">
<path fill-rule="evenodd" clip-rule="evenodd" d="M0 3.66667L11 0L22 3.66667V14.6667C22 20.7424 17.0758 25.6667 11 25.6667C4.92422 25.6667 0 20.7424 0 14.6667V3.66667ZM11 23.6042C15.9357 23.6042 19.9375 19.6023 19.9375 14.6667V5.21354L11 2.0625L2.0625 5.21354V14.6667C2.0625 19.6023 6.06432 23.6042 11 23.6042ZM6.83862 11.5515C6.96373 11.6034 7.07734 11.6796 7.17292 11.7757L10.1693 14.772L15.8039 9.14024C15.8943 9.04965 16.0017 8.97779 16.1199 8.92876C16.2381 8.87973 16.3649 8.85449 16.4928 8.85449C16.6208 8.85449 16.7475 8.87973 16.8658 8.92876C16.984 8.97779 17.0914 9.04965 17.1818 9.14024L17.262 9.22044C17.3526 9.31085 17.4244 9.41824 17.4735 9.53646C17.5225 9.65467 17.5477 9.7814 17.5477 9.90938C17.5477 10.0374 17.5225 10.1641 17.4735 10.2823C17.4244 10.4005 17.3526 10.5079 17.262 10.5983L10.8596 17.0007C10.7692 17.0912 10.6618 17.1631 10.5436 17.2121C10.4254 17.2612 10.2987 17.2864 10.1707 17.2864C10.0427 17.2864 9.916 17.2612 9.79779 17.2121C9.67957 17.1631 9.57218 17.0912 9.48177 17.0007L9.42162 16.9405L5.71485 13.2337C5.61883 13.1381 5.54264 13.0245 5.49065 12.8994C5.43866 12.7743 5.4119 12.6402 5.4119 12.5047C5.4119 12.3692 5.43866 12.2351 5.49065 12.11C5.54264 11.9848 5.61883 11.8712 5.71485 11.7757C5.81043 11.6796 5.92403 11.6034 6.04914 11.5515C6.17425 11.4995 6.3084 11.4727 6.44388 11.4727C6.57936 11.4727 6.71351 11.4995 6.83862 11.5515Z" fill="#B3DA61"/>
</svg>
