<svg width="37" height="50" viewBox="0 0 37 50" fill="none" xmlns="http://www.w3.org/2000/svg">
<path d="M30.9 0H7.1C6.54305 0 6.0089 0.221249 5.61508 0.615076C5.22125 1.0089 5 1.54305 5 2.1V16.1C5 16.657 5.22125 17.1911 5.61508 17.5849C6.0089 17.9788 6.54305 18.2 7.1 18.2H17.6V19.6H9.9C9.71435 19.6 9.5363 19.6737 9.40503 19.805C9.27375 19.9363 9.2 20.1143 9.2 20.3V21.7C9.2 21.8857 9.27375 22.0637 9.40503 22.195C9.5363 22.3263 9.71435 22.4 9.9 22.4H28.1C28.2857 22.4 28.4637 22.3263 28.595 22.195C28.7262 22.0637 28.8 21.8857 28.8 21.7V20.3C28.8 20.1143 28.7262 19.9363 28.595 19.805C28.4637 19.6737 28.2857 19.6 28.1 19.6H20.4V18.2H30.9C31.457 18.2 31.9911 17.9788 32.3849 17.5849C32.7787 17.1911 33 16.657 33 16.1V2.1C33 1.54305 32.7787 1.0089 32.3849 0.615076C31.9911 0.221249 31.457 0 30.9 0V0ZM30.2 15.4H7.8V2.8H30.2V15.4Z" fill="#B3DA61"/>
<path d="M2.44 44H3.43V37.87H5.83V37H0.04V37.87H2.44V44ZM11.0223 41.38C11.0223 39.75 9.93227 38.65 8.40227 38.65C6.87227 38.65 5.74227 39.78 5.74227 41.35C5.74227 42.93 6.88227 44.06 8.59227 44.06C9.47227 44.06 10.2023 43.76 10.6823 43.2L10.1523 42.58C9.76227 43.01 9.24227 43.22 8.62227 43.22C7.57227 43.22 6.82227 42.6 6.70227 41.67H11.0023C11.0123 41.58 11.0223 41.46 11.0223 41.38ZM8.40227 39.46C9.33227 39.46 10.0023 40.09 10.1023 40.98H6.70227C6.80227 40.08 7.48227 39.46 8.40227 39.46ZM12.3553 44H13.3153V36.58H12.3553V44ZM19.9383 41.38C19.9383 39.75 18.8483 38.65 17.3183 38.65C15.7883 38.65 14.6583 39.78 14.6583 41.35C14.6583 42.93 15.7983 44.06 17.5083 44.06C18.3883 44.06 19.1183 43.76 19.5983 43.2L19.0683 42.58C18.6783 43.01 18.1583 43.22 17.5383 43.22C16.4883 43.22 15.7383 42.6 15.6183 41.67H19.9183C19.9283 41.58 19.9383 41.46 19.9383 41.38ZM17.3183 39.46C18.2483 39.46 18.9183 40.09 19.0183 40.98H15.6183C15.7183 40.08 16.3983 39.46 17.3183 39.46ZM24.9237 38.7L23.0637 42.95L21.2437 38.7H20.2437L22.5637 44H23.5437L25.8637 38.7H24.9237ZM27.2396 37.68C27.6196 37.68 27.8896 37.4 27.8896 37.04C27.8896 36.7 27.6096 36.43 27.2396 36.43C26.8696 36.43 26.5896 36.71 26.5896 37.06C26.5896 37.41 26.8696 37.68 27.2396 37.68ZM26.7596 44H27.7196V38.7H26.7596V44ZM31.0726 44.06C32.4826 44.06 33.3626 43.45 33.3626 42.49C33.3626 40.43 30.0026 41.45 30.0026 40.2C30.0026 39.78 30.4126 39.47 31.2526 39.47C31.7726 39.47 32.3026 39.58 32.7826 39.89L33.1926 39.13C32.7326 38.83 31.9526 38.65 31.2626 38.65C29.9026 38.65 29.0526 39.29 29.0526 40.24C29.0526 42.35 32.4026 41.32 32.4026 42.51C32.4026 42.96 32.0326 43.23 31.1426 43.23C30.4526 43.23 29.7326 43 29.2826 42.68L28.8826 43.44C29.3226 43.79 30.1926 44.06 31.0726 44.06ZM35.0423 37.68C35.4223 37.68 35.6923 37.4 35.6923 37.04C35.6923 36.7 35.4123 36.43 35.0423 36.43C34.6723 36.43 34.3923 36.71 34.3923 37.06C34.3923 37.41 34.6723 37.68 35.0423 37.68ZM34.5623 44H35.5223V38.7H34.5623V44Z" fill="#514F4F"/>
</svg>
