<svg width="24" height="24" viewBox="0 0 24 24" fill="none" xmlns="http://www.w3.org/2000/svg">
<circle cx="12" cy="12" r="12" fill="#BFE241"/>
<path d="M12 3C7.59111 3 4 6.59111 4 11C4 14.1858 5.88978 16.9236 8.59378 18.2089L6.66667 20.7778H17.3333L15.4062 18.2089C18.1102 16.9236 20 14.1858 20 11C20 6.59111 16.4089 3 12 3ZM11.7778 4.79911V8.344C11.2251 8.39033 10.7006 8.60783 10.2773 8.96622L7.76889 6.45244C8.8617 5.43399 10.2865 4.84599 11.7796 4.79733L11.7778 4.79911ZM12.2222 4.79911C13.776 4.85244 15.1733 5.46933 16.2329 6.45422L13.7227 8.96622L13.7191 8.96267C13.2964 8.60624 12.7733 8.39004 12.2222 8.344V4.79911ZM7.45422 6.76711L9.96444 9.27733C9.96444 9.27733 9.96444 9.28089 9.96089 9.28089C9.6051 9.70386 9.38953 10.2269 9.344 10.7778H5.79911C5.85244 9.224 6.46933 7.82667 7.45422 6.76711ZM16.5458 6.76711C17.5307 7.82667 18.1458 9.224 18.2009 10.7778H14.656C14.6097 10.2251 14.3922 9.70061 14.0338 9.27733L16.5476 6.76889L16.5458 6.76711ZM5.79911 11.2222H9.344C9.39033 11.7749 9.60783 12.2994 9.96622 12.7227L7.45244 15.2311C6.43399 14.1383 5.84599 12.7135 5.79733 11.2204L5.79911 11.2222ZM14.656 11.2222H18.2009C18.1524 12.7153 17.5644 14.1402 16.5458 15.2329L14.0338 12.7227L14.0373 12.7191C14.3938 12.2964 14.61 11.7733 14.656 11.2222ZM10.2773 13.0356C10.2773 13.0356 10.2809 13.0356 10.2809 13.0391C10.5272 13.2442 10.8084 13.4032 11.1111 13.5084V17.1351C9.86043 16.9594 8.69382 16.404 7.76889 15.544L10.2756 13.0338L10.2773 13.0356ZM13.7227 13.0356L16.2311 15.544C15.306 16.4033 14.1394 16.9581 12.8889 17.1333V13.5102C13.1934 13.4032 13.4759 13.2417 13.7227 13.0338V13.0356Z" fill="white"/>
</svg>
