<svg width="24" height="24" viewBox="0 0 24 24" fill="none" xmlns="http://www.w3.org/2000/svg">
<path d="M0.457031 13.0324C0.761719 13.3374 1.12891 13.4899 1.55859 13.4899C1.98828 13.4899 2.35156 13.3335 2.64844 13.0207L3 12.6922V22.4987H0.75C0.546875 22.4987 0.371094 22.573 0.222656 22.7215C0.0742188 22.8701 0 23.0461 0 23.2494C0 23.4527 0.0742188 23.6287 0.222656 23.7773C0.371094 23.9259 0.546875 24.0001 0.75 24.0001H23.2266C23.4297 24.0001 23.6055 23.9259 23.7539 23.7773C23.9023 23.6287 23.9766 23.4527 23.9766 23.2494C23.9766 23.0461 23.9023 22.8701 23.7539 22.7215C23.6055 22.573 23.4297 22.4987 23.2266 22.4987H21V12.6922L21.3516 13.0207C21.6484 13.3335 22.0117 13.4899 22.4414 13.4899C22.8711 13.4899 23.2383 13.3374 23.543 13.0324C23.8477 12.7274 24 12.3599 24 11.9298C24 11.4997 23.8516 11.136 23.5547 10.8389L13.1484 0.445888C12.8359 0.133083 12.4531 -0.0154997 12 0.0001406C11.5469 -0.0154997 11.1641 0.133083 10.8516 0.445888L0.46875 10.8389C0.15625 11.136 0 11.4997 0 11.9298C0 12.3599 0.152344 12.7274 0.457031 13.0324ZM13.5 15.7421C13.5 15.5388 13.5742 15.3628 13.7227 15.2142C13.8711 15.0656 14.0469 14.9913 14.25 14.9913H17.25C17.4531 14.9913 17.6289 15.0656 17.7773 15.2142C17.9258 15.3628 18 15.5388 18 15.7421V22.4987H13.5V15.7421ZM6 15.7421C6 15.5388 6.07422 15.3628 6.22266 15.2142C6.37109 15.0656 6.54688 14.9913 6.75 14.9913H9.75C9.95312 14.9913 10.1289 15.0656 10.2773 15.2142C10.4258 15.3628 10.5 15.5388 10.5 15.7421V18.745C10.5 18.9483 10.4258 19.1243 10.2773 19.2729C10.1289 19.4215 9.95312 19.4957 9.75 19.4957H6.75C6.54688 19.4957 6.37109 19.4215 6.22266 19.2729C6.07422 19.1243 6 18.9483 6 18.745V15.7421Z" fill="black"/>
</svg>
