<?xml version="1.0" encoding="UTF-8"?>
<!DOCTYPE svg PUBLIC "-//W3C//DTD SVG 1.1//EN" "http://www.w3.org/Graphics/SVG/1.1/DTD/svg11.dtd">
<!-- Creator: CorelDRAW 2018 (64-Bit) -->
<svg xmlns="http://www.w3.org/2000/svg" xml:space="preserve" width="512px" height="512px" version="1.1" style="shape-rendering:geometricPrecision; text-rendering:geometricPrecision; image-rendering:optimizeQuality; fill-rule:evenodd; clip-rule:evenodd"
viewBox="0 0 512 512"
 xmlns:xlink="http://www.w3.org/1999/xlink">
 <defs>
  <style type="text/css">
   <![CDATA[
    .fil0 {fill:black}
   ]]>
  </style>
 </defs>
 <g id="Layer_x0020_1">
  <metadata id="CorelCorpID_0Corel-Layer"/>
  <path class="fil0" d="M261.54 266.58c0,-8.81 -0.8,-19.82 12.11,-19.82 14.18,0 15.51,31.4 0.69,33.78 -6.66,1.07 -12.8,-4.59 -12.8,-13.96zm-19.82 -62.75l0 91.38 18.72 0 0 -6.61c6.6,4.42 6.42,7.71 19.81,7.71 33.13,0 31.49,-64.96 2.2,-64.96 -17.44,0 -10.98,-0.05 -20.91,6.61l0 -38.53c-5.89,0 -6.17,1.01 -10.98,1.13 -4.32,0.11 -8.84,-1.51 -8.84,3.27z"/>
  <path class="fil0" d="M445.39 293.33l18.93 0.63 0 -28.59 2.53 2.31c1.61,6.92 14.39,21.63 15.97,27.53l20.91 0c-0.53,-6.38 -18.71,-28.06 -18.71,-31.93l13.65 -22.68c2.14,-3.2 3.36,-4.93 5.06,-8.15l-22.01 0 -7.71 13.22c-3.47,5.13 -4.43,8.17 -8.81,13.21l0 -59.45c-6.24,0 -6.96,1.09 -13.24,1.07 -7.4,-0.03 -6.68,0.48 -6.6,7.71l0.03 85.12z"/>
  <path class="fil0" d="M75.48 265.48c0,-27.08 23.12,-22.43 23.12,-3.3 0,9.5 -1.69,16.97 -10.31,18.36 -8.29,1.33 -12.81,-7.44 -12.81,-15.06zm22.48 23.12l1.59 -2.02 0.16 7.52 17.61 0 0 -61.65 -18.72 0 0 5.51c-4.44,-2.98 -5.55,-6.43 -13.15,-6.66 -13.14,-0.39 -21.87,1.98 -26.65,14.2 -5.46,13.93 -4.6,38.45 8.5,46.88 8.83,5.69 26.05,6.03 30.66,-3.78z"/>
  <path class="fil0" d="M328.69 264.38c0,-26 23.12,-19.22 23.12,-6.61l0 9.91c0,17.51 -23.12,18.04 -23.12,-3.3zm-19.82 -1.1c0,7.45 2.46,18.01 7.41,23.42 16.32,17.86 55.35,10.63 55.35,-16.82l0 -11c0,-14.42 -11.42,-27.53 -25.33,-27.53 -11.07,0 -23.26,-0.57 -30.41,9.22 -4.65,6.37 -7.02,14.12 -7.02,22.71z"/>
  <path class="fil0" d="M396.95 268.78c0,-10.31 -1.54,-22.02 12.11,-22.02 8.18,0 11.01,8.16 11.01,16.52 0,25.36 -23.12,19.03 -23.12,5.5zm-19.82 -9.9c0,21.2 3.52,37.43 33.03,37.43 9.17,0 16.04,-3.09 21.76,-9.06 3.1,-3.24 4.23,-5.41 5.65,-9.77 6.63,-20.37 -0.91,-46.13 -25.21,-46.13l-9.91 0c-13.91,0 -25.32,13.11 -25.32,27.53z"/>
  <path class="fil0" d="M207.59 244.56c6.49,0 9.76,6.26 9.91,13.21l-22.02 0c1.69,-7.24 3.26,-13.21 12.11,-13.21zm23.12 35.91c-1.6,-2.01 -0.65,-0.72 -2.2,-1.78 -5.39,0.45 -13.93,3.85 -19.72,3.29 -2.29,-0.23 -7.57,-1.68 -9.19,-3 -2.78,-2.26 -2.54,-4.85 -4.22,-7.99 3.94,-2.6 34.52,-1.21 39.07,-1.21l-0.84 -17.51c0.8,-6.58 -4.01,-13.91 -8.39,-16.53 -10,-5.97 -30.5,-7.56 -40.48,2.49 -10.49,10.55 -10.72,26.43 -6.92,40.51 5.1,18.9 29.45,19.08 46.05,16.23 3.91,-0.67 6.64,-2.25 10.14,-3.07 -1.57,-3.28 -1.89,-7.85 -3.3,-11.43z"/>
  <path class="fil0" d="M8.33 247.64l12.79 0.25 0.21 45.99 18.93 -0.55 0 -44.36 14.31 0c0,-7.32 1.1,-9.53 1.1,-16.52l-15.41 0c0,-6.9 -0.2,-9.84 1.1,-15.41 5.33,-1.24 7.65,-1.1 14.31,-1.1l0 -16.51c-30.33,0 -35.23,1.77 -35.23,33.02l-12.11 0 0 15.19z"/>
  <path class="fil0" d="M123.92 261.08c0,21.22 5.94,35.23 33.03,35.23 8.01,0 11.48,-1.88 17.62,-3.31 -0.1,-4.35 -2.92,-12.31 -4.41,-15.41 -11.15,5.35 -26.42,4.14 -26.42,-11.01 0,-29.19 16.43,-17.86 27.52,-17.61 0.44,-5.23 2.83,-8.59 3.31,-14.31 -11.28,-5.42 -32.51,-5.64 -43.23,5.21 -4.99,5.04 -7.42,11.59 -7.42,21.21z"/>
  <path class="fil0" d="M97.96 288.6l0.72 6.6 19.74 0.01 0.01 -55.06c0.05,-5.31 0.59,-5.02 -1.11,-7.7l0 61.65 -17.61 0 -0.16 -7.52 -1.59 2.02z"/>
  <path class="fil0" d="M40.26 293.33l-18.93 0.55 -0.21 -45.99 -12.79 -0.25c1.52,1.16 -0.42,0.77 2.25,1.27 0.46,0.08 2.62,0.12 3.2,0.13 2.14,0.03 4.47,-0.07 6.66,-0.07l0 46.24 15.49 0.14c7.93,-0.67 1.74,0.77 4.33,-2.02z"/>
  <path class="fil0" d="M195.38 270.99l39.73 0c0,-3.31 -0.03,-6.62 0.01,-9.92 0.13,-12.29 0.13,-6.91 -1.51,-8.8l0.84 17.51c-4.55,0 -35.13,-1.39 -39.07,1.21z"/>
  <path class="fil0" d="M445.39 293.33c2.13,2.31 -0.33,2 8.8,1.88 3.66,-0.05 7.35,0 11.01,0l-0.04 -20.95c-0.05,-6.24 -0.13,-4.67 1.69,-6.58l-2.53 -2.31 0 28.59 -18.93 -0.63z"/>
  <path class="fil0" d="M230.71 280.47l0 -2.88 -2.2 1.1c1.55,1.06 0.6,-0.23 2.2,1.78z"/>
 </g>
</svg>
